<?xml version="1.0" encoding="UTF-8" standalone="no"?>
<svg
   xmlns:dc="http://purl.org/dc/elements/1.1/"
   xmlns:cc="http://creativecommons.org/ns#"
   xmlns:rdf="http://www.w3.org/1999/02/22-rdf-syntax-ns#"
   xmlns:svg="http://www.w3.org/2000/svg"
   xmlns="http://www.w3.org/2000/svg"
   id="svg8"
   version="1.1"
   viewBox="0 0 210 297"
   height="297mm"
   width="210mm">
  <defs
     id="defs2" />
  <metadata
     id="metadata5">
    <rdf:RDF>
      <cc:Work
         rdf:about="">
        <dc:format>image/svg+xml</dc:format>
        <dc:type
           rdf:resource="http://purl.org/dc/dcmitype/StillImage" />
        <dc:title></dc:title>
      </cc:Work>
    </rdf:RDF>
  </metadata>
  <g
     id="layer1">
    <path
       id="path4554"
       d="m 15.111574,53.959557 v -24.56845 c 0,-15.431546 24.60252,-15.431546 24.60252,-15.431546 v 39.999996 c 0,0 0,5.78304 5.77469,5.78304 h 85.357326"
       style="fill:none;fill-rule:evenodd;stroke:#000000;stroke-width:4.76249981;stroke-linecap:square;stroke-linejoin:miter;stroke-miterlimit:4;stroke-dasharray:none;stroke-opacity:1" />
    <path
       id="path4556"
       d="m 15.111574,39.785457 h 24.60252"
       style="fill:none;fill-rule:evenodd;stroke:#000000;stroke-width:4.76249981;stroke-linecap:square;stroke-linejoin:miter;stroke-miterlimit:4;stroke-dasharray:none;stroke-opacity:1" />
    <path
       id="path4554-3"
       d="m 45.488784,39.690957 24.60254,0.0945 0.002,-10.39435 c 0.004,-15.431546 -24.60353,-15.431546 -24.60353,-15.431546 l -0.001,39.999996"
       style="fill:none;fill-rule:evenodd;stroke:#000000;stroke-width:4.76249981;stroke-linecap:round;stroke-linejoin:miter;stroke-miterlimit:4;stroke-dasharray:none;stroke-opacity:1" />
    <path
       id="path4605-1"
       d="M 121.79092,53.959557 V 13.959561"
       style="fill:none;fill-rule:evenodd;stroke:#000000;stroke-width:4.76249981;stroke-linecap:square;stroke-linejoin:round;stroke-miterlimit:4;stroke-dasharray:none;stroke-opacity:1" />
    <path
       d="m 61.035984,39.785457 c 0,0 -0.0277,14.1741 9.05534,14.1741 h 5.7749 9.05508 c 15.547466,0 15.554166,-14.22135 15.554166,-14.22135 l -24.595826,0.0473 -0.002,-10.39435 c -0.004,-15.431546 24.596816,-15.431566 24.596816,-15.431566 l 5.76912,-3e-5 h 24.60255"
       style="fill:none;fill-rule:evenodd;stroke:#000000;stroke-width:4.76249981;stroke-linecap:square;stroke-linejoin:miter;stroke-miterlimit:4;stroke-dasharray:none;stroke-opacity:1"
       id="path4554-3-2" />
  </g>
</svg>
